HIERARCHY
ROOT hip
{
  OFFSET 0 90.174 2.4664
  CHANNELS 6 Xposition Yposition Zposition Zrotation Xrotation Yrotation
  JOINT abdomen
  {
    OFFSET 0 -1.186 -1.5018
    CHANNELS 6 Xposition Yposition Zposition Zrotation Xrotation Yrotation
    JOINT abdomen2
    {
      OFFSET 0 9.964 0.2134
      CHANNELS 6 Xposition Yposition Zposition Zrotation Xrotation Yrotation
      JOINT chest
      {
        OFFSET 0 13.134 -3.2573
        CHANNELS 6 Xposition Yposition Zposition Zrotation Xrotation Yrotation
        JOINT neck
        {
          OFFSET 0 20.686 -1.6905
          CHANNELS 6 Xposition Yposition Zposition Zrotation Xrotation Yrotation
          JOINT head
          {
            OFFSET 0 7.238 -0.1237
            CHANNELS 6 Xposition Yposition Zposition Zrotation Xrotation Yrotation
            End Site
            {
              OFFSET 0 0 0
            }
          }
        }
        JOINT lCollar
        {
          OFFSET 1.7069 20.075 5.0056
          CHANNELS 6 Xposition Yposition Zposition Zrotation Xrotation Yrotation
          JOINT lShldr
          {
            OFFSET 13.6458 -0.047 -4.849
            CHANNELS 6 Xposition Yposition Zposition Zrotation Xrotation Yrotation
            JOINT lForeArm
            {
              OFFSET 28.3255 -0.9759 2.2888
              CHANNELS 6 Xposition Yposition Zposition Zrotation Xrotation Yrotation
              JOINT lHand
              {
                OFFSET 22.1583 -0.53 10.8316
                CHANNELS 6 Xposition Yposition Zposition Zrotation Xrotation Yrotation
                JOINT lThumb1
                {
                  OFFSET 0.786 0.112 2.5817
                  CHANNELS 6 Xposition Yposition Zposition Zrotation Xrotation Yrotation
                  JOINT lThumb2
                  {
                    OFFSET 0.3601 -0.878 4.2331
                    CHANNELS 6 Xposition Yposition Zposition Zrotation Xrotation Yrotation
                    JOINT lThumb2_End
                    {
                      OFFSET 1.8127 -1.216 2.2227
                      CHANNELS 6 Xposition Yposition Zposition Zrotation Xrotation Yrotation
                      End Site
                      {
                        OFFSET 0.0181 -0.0122 0.0222
                      }
                    }
                  }
                }
                JOINT lCarpal1
                {
                  OFFSET 0.9571 1.114 1.7695
                  CHANNELS 6 Xposition Yposition Zposition Zrotation Xrotation Yrotation
                  JOINT lIndex1
                  {
                    OFFSET 4.1246 0.487 4.1451
                    CHANNELS 6 Xposition Yposition Zposition Zrotation Xrotation Yrotation
                    JOINT lIndex2
                    {
                      OFFSET 3.4052 -1.454 2.7682
                      CHANNELS 6 Xposition Yposition Zposition Zrotation Xrotation Yrotation
                      JOINT lIndex2_End
                      {
                        OFFSET 1.4531 -1.795 1.2713
                        CHANNELS 6 Xposition Yposition Zposition Zrotation Xrotation Yrotation
                        End Site
                        {
                          OFFSET 0.0145 -0.0179 0.0127
                        }
                      }
                    }
                  }
                  JOINT lMid1
                  {
                    OFFSET 5.6954 0.21 2.1184
                    CHANNELS 6 Xposition Yposition Zposition Zrotation Xrotation Yrotation
                    JOINT lMid2
                    {
                      OFFSET 3.9766 -1.54 2.3863
                      CHANNELS 6 Xposition Yposition Zposition Zrotation Xrotation Yrotation
                      JOINT lMid2_End
                      {
                        OFFSET 1.4042 -1.926 1.125
                        CHANNELS 6 Xposition Yposition Zposition Zrotation Xrotation Yrotation
                        End Site
                        {
                          OFFSET 0.014 -0.0193 0.0113
                        }
                      }
                    }
                  }
                }
                JOINT lCarpal2
                {
                  OFFSET 2.0956 0.66 -0.3894
                  CHANNELS 6 Xposition Yposition Zposition Zrotation Xrotation Yrotation
                  JOINT lRing1
                  {
                    OFFSET 5.0395 -0.09 2.4971
                    CHANNELS 6 Xposition Yposition Zposition Zrotation Xrotation Yrotation
                    JOINT lRing2
                    {
                      OFFSET 3.7921 -1.552 1.4806
                      CHANNELS 6 Xposition Yposition Zposition Zrotation Xrotation Yrotation
                      JOINT lRing2_End
                      {
                        OFFSET 1.4655 -1.808 0.9609
                        CHANNELS 6 Xposition Yposition Zposition Zrotation Xrotation Yrotation
                        End Site
                        {
                          OFFSET 0.0147 -0.0181 0.0096
                        }
                      }
                    }
                  }
                  JOINT lPinky1
                  {
                    OFFSET 4.9141 -1.269 0.3591
                    CHANNELS 6 Xposition Yposition Zposition Zrotation Xrotation Yrotation
                    JOINT lPinky2
                    {
                      OFFSET 3.1477 -1.685 0.8462
                      CHANNELS 6 Xposition Yposition Zposition Zrotation Xrotation Yrotation
                      JOINT lPinky2_End
                      {
                        OFFSET 0.8055 -1.585 0.7955
                        CHANNELS 6 Xposition Yposition Zposition Zrotation Xrotation Yrotation
                        End Site
                        {
                          OFFSET 0.0081 -0.0158 0.008
                        }
                      }
                    }
                  }
                }
              }
            }
          }
        }
        JOINT rCollar
        {
          OFFSET -1.7069 20.075 5.0056
          CHANNELS 6 Xposition Yposition Zposition Zrotation Xrotation Yrotation
          JOINT rShldr
          {
            OFFSET -13.6458 -0.047 -4.849
            CHANNELS 6 Xposition Yposition Zposition Zrotation Xrotation Yrotation
            JOINT rForeArm
            {
              OFFSET -28.3255 -0.9759 2.2888
              CHANNELS 6 Xposition Yposition Zposition Zrotation Xrotation Yrotation
              JOINT rHand
              {
                OFFSET -22.1583 -0.53 10.8316
                CHANNELS 6 Xposition Yposition Zposition Zrotation Xrotation Yrotation
                JOINT rThumb1
                {
                  OFFSET -0.786 0.112 2.5817
                  CHANNELS 6 Xposition Yposition Zposition Zrotation Xrotation Yrotation
                  JOINT rThumb2
                  {
                    OFFSET -0.3601 -0.878 4.2331
                    CHANNELS 6 Xposition Yposition Zposition Zrotation Xrotation Yrotation
                    JOINT rThumb2_End
                    {
                      OFFSET -1.8127 -1.216 2.2227
                      CHANNELS 6 Xposition Yposition Zposition Zrotation Xrotation Yrotation
                      End Site
                      {
                        OFFSET -0.0181 -0.0122 0.0222
                      }
                    }
                  }
                }
                JOINT rCarpal1
                {
                  OFFSET -0.9571 1.114 1.7695
                  CHANNELS 6 Xposition Yposition Zposition Zrotation Xrotation Yrotation
                  JOINT rIndex1
                  {
                    OFFSET -4.1246 0.487 4.1451
                    CHANNELS 6 Xposition Yposition Zposition Zrotation Xrotation Yrotation
                    JOINT rIndex2
                    {
                      OFFSET -3.4052 -1.454 2.7682
                      CHANNELS 6 Xposition Yposition Zposition Zrotation Xrotation Yrotation
                      JOINT rIndex2_End
                      {
                        OFFSET -1.4531 -1.795 1.2713
                        CHANNELS 6 Xposition Yposition Zposition Zrotation Xrotation Yrotation
                        End Site
                        {
                          OFFSET -0.0145 -0.018 0.0127
                        }
                      }
                    }
                  }
                  JOINT rMid1
                  {
                    OFFSET -5.6954 0.21 2.1184
                    CHANNELS 6 Xposition Yposition Zposition Zrotation Xrotation Yrotation
                    JOINT rMid2
                    {
                      OFFSET -3.9766 -1.54 2.3863
                      CHANNELS 6 Xposition Yposition Zposition Zrotation Xrotation Yrotation
                      JOINT rMid2_End
                      {
                        OFFSET -1.4042 -1.926 1.125
                        CHANNELS 6 Xposition Yposition Zposition Zrotation Xrotation Yrotation
                        End Site
                        {
                          OFFSET -0.014 -0.0193 0.0113
                        }
                      }
                    }
                  }
                }
                JOINT rCarpal2
                {
                  OFFSET -2.0956 0.66 -0.3894
                  CHANNELS 6 Xposition Yposition Zposition Zrotation Xrotation Yrotation
                  JOINT rRing1
                  {
                    OFFSET -5.0395 -0.09 2.4971
                    CHANNELS 6 Xposition Yposition Zposition Zrotation Xrotation Yrotation
                    JOINT rRing2
                    {
                      OFFSET -3.7921 -1.552 1.4806
                      CHANNELS 6 Xposition Yposition Zposition Zrotation Xrotation Yrotation
                      JOINT rRing2_End
                      {
                        OFFSET -1.4655 -1.808 0.9609
                        CHANNELS 6 Xposition Yposition Zposition Zrotation Xrotation Yrotation
                        End Site
                        {
                          OFFSET -0.0147 -0.0181 0.0096
                        }
                      }
                    }
                  }
                  JOINT rPinky1
                  {
                    OFFSET -4.9141 -1.269 0.3592
                    CHANNELS 6 Xposition Yposition Zposition Zrotation Xrotation Yrotation
                    JOINT rPinky2
                    {
                      OFFSET -3.1477 -1.685 0.8462
                      CHANNELS 6 Xposition Yposition Zposition Zrotation Xrotation Yrotation
                      JOINT rPinky2_End
                      {
                        OFFSET -0.8055 -1.585 0.7955
                        CHANNELS 6 Xposition Yposition Zposition Zrotation Xrotation Yrotation
                        End Site
                        {
                          OFFSET -0.0081 -0.0158 0.008
                        }
                      }
                    }
                  }
                }
              }
            }
          }
        }
      }
    }
  }
  JOINT lThigh
  {
    OFFSET 8.367 -8.2066 0.5982
    CHANNELS 6 Xposition Yposition Zposition Zrotation Xrotation Yrotation
    JOINT lShin
    {
      OFFSET 2.1923 -43.463 -0.4932
      CHANNELS 6 Xposition Yposition Zposition Zrotation Xrotation Yrotation
      JOINT lFoot
      {
        OFFSET 0.7333 -45.8593 -2.6451
        CHANNELS 6 Xposition Yposition Zposition Zrotation Xrotation Yrotation
        End Site
        {
          OFFSET 2.6618 -4.2699 12.3931
        }
      }
    }
  }
  JOINT rThigh
  {
    OFFSET -8.367 -8.2066 0.5982
    CHANNELS 6 Xposition Yposition Zposition Zrotation Xrotation Yrotation
    JOINT rShin
    {
      OFFSET -2.1923 -43.463 -0.4931
      CHANNELS 6 Xposition Yposition Zposition Zrotation Xrotation Yrotation
      JOINT rFoot
      {
        OFFSET -0.7333 -45.8593 -2.6451
        CHANNELS 6 Xposition Yposition Zposition Zrotation Xrotation Yrotation
        End Site
        {
          OFFSET -2.6618 -4.2699 12.3931
        }
      }
    }
  }
}
MOTION
Frames:	4
Frame Time:	0.0333333
0.783794 17.3124 2.75867 175.356 -87.4295 -4.4277 1.11022e-016 -1.186 -1.5018 -0.0923777 -3.67711 -0.280783 0 9.964 0.2134 -0.203482 -7.35363 -0.569284 0 13.134 -3.2573 -0.203482 -7.35366 -0.569284 2.22045e-016 20.686 -1.6905 7.01095 -3.38583 -4.58549 -1.33227e-015 7.238 -0.1237 1.17091e-006 -13.1526 4.2615e-007 1.7069 20.075 5.0056 10.7943 5.68531 -16.5953 13.6458 -0.047 -4.849 -15.4979 -17.9285 -25.5076 28.3255 -0.9759 2.2888 3.24027 7.16776 -30.3975 22.1583 -0.53 10.8316 57.2699 -19.7568 5.34895 0.786 0.112 2.5817 -1.18592e-006 1.9205e-007 2.60017e-008 0.3601 -0.878 4.2331 -1.57002e-006 -2.1798e-006 -2.09686e-007 1.8127 -1.216 2.2227 -1.18592e-006 1.9205e-007 2.60018e-008 0.9571 1.114 1.7695 3.18055e-015 0 -3.18055e-015 4.1246 0.487 4.1451 -1.18592e-006 1.9205e-007 2.60017e-008 3.4052 -1.454 2.7682 -1.57002e-006 -2.1798e-006 -2.09686e-007 1.4531 -1.795 1.2713 -1.18592e-006 1.9205e-007 2.60018e-008 5.6954 0.21 2.1184 -1.18592e-006 1.9205e-007 2.60017e-008 3.9766 -1.54 2.3863 -1.57002e-006 -2.1798e-006 -2.09686e-007 1.4042 -1.926 1.125 -1.18592e-006 1.9205e-007 2.60018e-008 2.0956 0.66 -0.3894 3.18055e-015 0 -3.18055e-015 5.0395 -0.09 2.4971 -1.18592e-006 1.9205e-007 2.60017e-008 3.7921 -1.552 1.4806 -1.57002e-006 -2.1798e-006 -2.09686e-007 1.4655 -1.808 0.9609 -1.18592e-006 1.9205e-007 2.60018e-008 4.9141 -1.269 0.3591 -1.18592e-006 1.9205e-007 2.60017e-008 3.1477 -1.685 0.8462 -1.57002e-006 -2.1798e-006 -2.09686e-007 0.8055 -1.585 0.7955 -1.18592e-006 1.9205e-007 2.60018e-008 -1.7069 20.075 5.0056 22.4112 3.25991 2.25549 -13.6458 -0.047 -4.849 7.25329 8.2325 37.1586 -28.3255 -0.9759 2.2888 -12.3844 -14.6313 9.57146 -22.1583 -0.53 10.8316 -56.437 -17.2743 -7.32724 -0.786 0.112 2.5817 -4.87091e-008 -1.2878e-007 -9.22739e-007 -0.3601 -0.878 4.2331 -1.59028e-015 -4.77083e-015 -3.18055e-015 -1.8127 -1.216 2.2227 4.8709e-008 1.2878e-007 9.22739e-007 -0.9571 1.114 1.7695 -1.76556e-031 1.59028e-015 6.36111e-015 -4.1246 0.487 4.1451 -4.87091e-008 -1.2878e-007 -9.22739e-007 -3.4052 -1.454 2.7682 -1.59028e-015 -4.77083e-015 -0 -1.4531 -1.795 1.2713 4.8709e-008 1.2878e-007 9.22739e-007 -5.6954 0.21 2.1184 -4.87091e-008 -1.2878e-007 -9.22739e-007 -3.9766 -1.54 2.3863 -1.59028e-015 -4.77083e-015 -0 -1.4042 -1.926 1.125 4.8709e-008 1.2878e-007 9.22739e-007 -2.0956 0.66 -0.3894 -1.76556e-031 1.59028e-015 6.36111e-015 -5.0395 -0.09 2.4971 -4.87091e-008 -1.2878e-007 -9.22739e-007 -3.7921 -1.552 1.4806 -1.59028e-015 -4.77083e-015 -0 -1.4655 -1.808 0.9609 4.8709e-008 1.2878e-007 9.22739e-007 -4.9141 -1.269 0.3592 -4.87091e-008 -1.2878e-007 -9.22739e-007 -3.1477 -1.685 0.8462 -1.59028e-015 -4.77083e-015 -0 -0.8055 -1.585 0.7955 4.8709e-008 1.2878e-007 9.22739e-007 8.367 -8.2066 0.5982 11.4803 -37.1892 24.754 2.1923 -43.463 -0.4932 -4.09609 32.5028 2.76809 0.7333 -45.8593 -2.6451 4.13226 57.5962 -6.53467 -8.367 -8.2066 0.5982 -12.3265 -38.0482 -25.3277 -2.1923 -43.463 -0.4931 4.252 34.1858 -2.59124 -0.7333 -45.8593 -2.6451 -4.1398 57.9894 6.65336 
0.782356 17.3806 2.95184 176.658 -86.1478 -3.11295 0 -1.186 -1.5018 -0.0903324 -3.79078 -0.281811 0 9.964 0.2134 -0.200055 -7.581 -0.571508 0 13.134 -3.2573 -0.200055 -7.58103 -0.571509 -2.22045e-016 20.686 -1.6905 7.01637 -4.06223 -4.50209 0 7.238 -0.1237 2.42948e-007 -13.2524 -1.98127e-006 1.7069 20.075 5.0056 11.1661 5.09524 -15.9196 13.6458 -0.047 -4.849 -15.6105 -17.8619 -25.7008 28.3255 -0.9759 2.2888 3.22753 7.14371 -31.1428 22.1583 -0.53 10.8316 57.3651 -19.6109 5.87361 0.786 0.112 2.5817 -4.77083e-015 1.19271e-015 -0 0.3601 -0.878 4.2331 -1.3779e-006 -9.93963e-007 -9.20687e-008 1.8127 -1.216 2.2227 3.18055e-015 -1.19271e-015 -3.18055e-015 0.9571 1.114 1.7695 -1.59028e-015 1.19271e-015 -3.18055e-015 4.1246 0.487 4.1451 -3.18055e-015 0 3.18055e-015 3.4052 -1.454 2.7682 -1.3779e-006 -9.93963e-007 -9.20687e-008 1.4531 -1.795 1.2713 1.59028e-015 0 -6.36111e-015 5.6954 0.21 2.1184 -3.18055e-015 0 3.18055e-015 3.9766 -1.54 2.3863 -1.3779e-006 -9.93963e-007 -9.20687e-008 1.4042 -1.926 1.125 1.59028e-015 0 -6.36111e-015 2.0956 0.66 -0.3894 -1.59028e-015 1.19271e-015 -3.18055e-015 5.0395 -0.09 2.4971 -3.18055e-015 0 3.18055e-015 3.7921 -1.552 1.4806 -1.3779e-006 -9.93963e-007 -9.20687e-008 1.4655 -1.808 0.9609 1.59028e-015 0 -6.36111e-015 4.9141 -1.269 0.3591 -3.18055e-015 0 3.18055e-015 3.1477 -1.685 0.8462 -1.3779e-006 -9.93963e-007 -9.20687e-008 0.8055 -1.585 0.7955 1.59028e-015 0 -6.36111e-015 -1.7069 20.075 5.0056 22.0935 2.94784 1.91968 -13.6458 -0.047 -4.849 7.30944 8.2934 37.5146 -28.3255 -0.9759 2.2888 -12.4279 -14.687 9.97009 -22.1583 -0.53 10.8316 -56.5932 -17.3538 -7.71898 -0.786 0.112 2.5817 3.18055e-015 0 -6.36111e-015 -0.3601 -0.878 4.2331 3.18055e-015 -1.59028e-015 -1.59028e-014 -1.8127 -1.216 2.2227 3.18055e-015 -1.59028e-015 -1.27222e-014 -0.9571 1.114 1.7695 1.59028e-015 -1.59028e-015 -6.36111e-015 -4.1246 0.487 4.1451 -2.64834e-031 -1.59028e-015 -9.54166e-015 -3.4052 -1.454 2.7682 1.59028e-015 0 -1.27222e-014 -1.4531 -1.795 1.2713 3.18055e-015 0 -9.54166e-015 -5.6954 0.21 2.1184 -2.64834e-031 -1.59028e-015 -9.54166e-015 -3.9766 -1.54 2.3863 1.59028e-015 0 -1.27222e-014 -1.4042 -1.926 1.125 3.18055e-015 0 -9.54166e-015 -2.0956 0.66 -0.3894 1.59028e-015 -1.59028e-015 -6.36111e-015 -5.0395 -0.09 2.4971 -2.64834e-031 -1.59028e-015 -9.54166e-015 -3.7921 -1.552 1.4806 1.59028e-015 0 -1.27222e-014 -1.4655 -1.808 0.9609 3.18055e-015 0 -9.54166e-015 -4.9141 -1.269 0.3592 -2.64834e-031 -1.59028e-015 -9.54166e-015 -3.1477 -1.685 0.8462 1.59028e-015 0 -1.27222e-014 -0.8055 -1.585 0.7955 3.18055e-015 0 -9.54166e-015 8.367 -8.2066 0.5982 12.1078 -38.8346 25.8355 2.1923 -43.463 -0.4932 -4.08989 33.0254 2.78119 0.7333 -45.8593 -2.6451 4.99288 57.5316 -7.39553 -8.367 -8.2066 0.5982 -12.944 -39.6439 -26.4458 -2.1923 -43.463 -0.4931 4.21715 34.6323 -2.58624 -0.7333 -45.8593 -2.6451 -5.0436 57.962 7.54201 
0.780928 17.45 3.14729 177.305 -84.8662 -2.45165 0 -1.186 -1.5018 -0.0882779 -3.90433 -0.282808 2.22045e-016 9.964 0.2134 -0.196609 -7.80813 -0.573668 1.11022e-016 13.134 -3.2573 -0.196608 -7.80813 -0.573668 0 20.686 -1.6905 7.02293 -4.73764 -4.41852 4.44089e-016 7.238 -0.1237 3.87207e-007 -13.3523 3.4502e-007 1.7069 20.075 5.0056 11.5444 4.50985 -15.241 13.6458 -0.047 -4.849 -15.7228 -17.7949 -25.8937 28.3255 -0.9759 2.2888 3.21448 7.11985 -31.888 22.1583 -0.53 10.8316 57.4588 -19.4642 6.39743 0.786 0.112 2.5817 -1.59028e-015 -1.98785e-015 -0 0.3601 -0.878 4.2331 1.31364e-006 -1.45609e-006 5.41332e-006 1.8127 -1.216 2.2227 1.59028e-015 7.95139e-016 -0 0.9571 1.114 1.7695 -3.18055e-015 -3.97569e-016 -0 4.1246 0.487 4.1451 1.59028e-015 -1.98785e-015 -3.18055e-015 3.4052 -1.454 2.7682 1.31364e-006 -1.45609e-006 5.41332e-006 1.4531 -1.795 1.2713 -4.41391e-032 3.97569e-016 6.36111e-015 5.6954 0.21 2.1184 1.59028e-015 -1.98785e-015 -3.18055e-015 3.9766 -1.54 2.3863 1.31364e-006 -1.45609e-006 5.41332e-006 1.4042 -1.926 1.125 -4.41391e-032 3.97569e-016 6.36111e-015 2.0956 0.66 -0.3894 -3.18055e-015 -3.97569e-016 -0 5.0395 -0.09 2.4971 1.59028e-015 -1.98785e-015 -3.18055e-015 3.7921 -1.552 1.4806 1.31364e-006 -1.45609e-006 5.41332e-006 1.4655 -1.808 0.9609 -4.41391e-032 3.97569e-016 6.36111e-015 4.9141 -1.269 0.3591 1.59028e-015 -1.98785e-015 -3.18055e-015 3.1477 -1.685 0.8462 1.31364e-006 -1.45609e-006 5.41332e-006 0.8055 -1.585 0.7955 -4.41391e-032 3.97569e-016 6.36111e-015 -1.7069 20.075 5.0056 21.7742 2.63767 1.58229 -13.6458 -0.047 -4.849 7.36521 8.35463 37.8705 -28.3255 -0.9759 2.2888 -12.471 -14.743 10.3687 -22.1583 -0.53 10.8316 -56.7499 -17.4322 -8.11107 -0.786 0.112 2.5817 1.59028e-015 -3.18055e-015 -0 -0.3601 -0.878 4.2331 7.51852e-007 -3.85887e-007 -8.18561e-007 -1.8127 -1.216 2.2227 -4.13074e-007 -6.29182e-007 -1.19481e-006 -0.9571 1.114 1.7695 1.59028e-015 1.59028e-015 -0 -4.1246 0.487 4.1451 -4.77083e-015 -1.59028e-015 1.27222e-014 -3.4052 -1.454 2.7682 7.51852e-007 -3.85887e-007 -8.18561e-007 -1.4531 -1.795 1.2713 -4.13074e-007 -6.29182e-007 -1.19481e-006 -5.6954 0.21 2.1184 -4.77083e-015 -1.59028e-015 1.27222e-014 -3.9766 -1.54 2.3863 7.51852e-007 -3.85887e-007 -8.18561e-007 -1.4042 -1.926 1.125 -4.13074e-007 -6.29182e-007 -1.19481e-006 -2.0956 0.66 -0.3894 1.59028e-015 1.59028e-015 -0 -5.0395 -0.09 2.4971 -4.77083e-015 -1.59028e-015 1.27222e-014 -3.7921 -1.552 1.4806 7.51852e-007 -3.85887e-007 -8.18561e-007 -1.4655 -1.808 0.9609 -4.13074e-007 -6.29182e-007 -1.19481e-006 -4.9141 -1.269 0.3592 -4.77083e-015 -1.59028e-015 1.27222e-014 -3.1477 -1.685 0.8462 7.51852e-007 -3.85887e-007 -8.18561e-007 -0.8055 -1.585 0.7955 -4.13074e-007 -6.29182e-007 -1.19481e-006 8.367 -8.2066 0.5982 12.788 -40.4676 26.9637 2.1923 -43.463 -0.4932 -4.08389 33.5472 2.79429 0.7333 -45.8593 -2.6451 5.85027 57.4602 -8.25268 -8.367 -8.2066 0.5982 -13.6145 -41.227 -27.6105 -2.1923 -43.463 -0.4931 4.18196 35.0776 -2.58077 -0.7333 -45.8593 -2.6451 -5.94592 57.9275 8.42874 
0.779506 17.5207 3.34496 177.691 -83.5853 -2.05202 0 -1.186 -1.5018 -0.0862115 -4.01766 -0.283775 -1.11022e-016 9.964 0.2134 -0.193142 -8.03486 -0.575759 -1.11022e-016 13.134 -3.2573 -0.193142 -8.03486 -0.575759 0 20.686 -1.6905 7.03028 -5.41475 -4.33478 -4.44089e-016 7.238 -0.1237 3.32453e-007 -13.4521 1.03535e-006 1.7069 20.075 5.0056 11.929 3.92925 -14.5594 13.6458 -0.047 -4.849 -15.8349 -17.7275 -26.0864 28.3255 -0.9759 2.2888 3.20109 7.09616 -32.6328 22.1583 -0.53 10.8316 57.551 -19.3168 6.92051 0.786 0.112 2.5817 3.18055e-015 -3.97569e-016 -0 0.3601 -0.878 4.2331 -6.88768e-007 -4.97191e-007 -4.63322e-008 1.8127 -1.216 2.2227 1.59028e-015 2.70347e-014 -3.18055e-015 0.9571 1.114 1.7695 3.18055e-015 -1.19271e-015 -0 4.1246 0.487 4.1451 -8.82781e-032 1.59028e-015 3.18055e-015 3.4052 -1.454 2.7682 -6.88768e-007 -4.97191e-007 -4.63322e-008 1.4531 -1.795 1.2713 0 2.50469e-014 -0 5.6954 0.21 2.1184 -8.82781e-032 1.59028e-015 3.18055e-015 3.9766 -1.54 2.3863 -6.88768e-007 -4.97191e-007 -4.63322e-008 1.4042 -1.926 1.125 0 2.50469e-014 -0 2.0956 0.66 -0.3894 3.18055e-015 -1.19271e-015 -0 5.0395 -0.09 2.4971 -8.82781e-032 1.59028e-015 3.18055e-015 3.7921 -1.552 1.4806 -6.88768e-007 -4.97191e-007 -4.63322e-008 1.4655 -1.808 0.9609 0 2.50469e-014 -0 4.9141 -1.269 0.3591 -8.82781e-032 1.59028e-015 3.18055e-015 3.1477 -1.685 0.8462 -6.88768e-007 -4.97191e-007 -4.63322e-008 0.8055 -1.585 0.7955 0 2.50469e-014 -0 -1.7069 20.075 5.0056 21.4531 2.32942 1.24333 -13.6458 -0.047 -4.849 7.42058 8.4162 38.2264 -28.3255 -0.9759 2.2888 -12.5137 -14.7993 10.7674 -22.1583 -0.53 10.8316 -56.9073 -17.5096 -8.50351 -0.786 0.112 2.5817 -5.78592e-008 -1.26455e-007 -9.33106e-007 -0.3601 -0.878 4.2331 -1.59028e-015 1.59028e-015 -6.36111e-015 -1.8127 -1.216 2.2227 5.78592e-008 1.26455e-007 9.33106e-007 -0.9571 1.114 1.7695 -1.59028e-015 -1.59028e-015 3.18055e-015 -4.1246 0.487 4.1451 -5.78592e-008 -1.26455e-007 -9.33106e-007 -3.4052 -1.454 2.7682 -3.18055e-015 6.36111e-015 -6.36111e-015 -1.4531 -1.795 1.2713 5.78592e-008 1.26455e-007 9.33106e-007 -5.6954 0.21 2.1184 -5.78592e-008 -1.26455e-007 -9.33106e-007 -3.9766 -1.54 2.3863 -3.18055e-015 6.36111e-015 -6.36111e-015 -1.4042 -1.926 1.125 5.78592e-008 1.26455e-007 9.33106e-007 -2.0956 0.66 -0.3894 -1.59028e-015 -1.59028e-015 3.18055e-015 -5.0395 -0.09 2.4971 -5.78592e-008 -1.26455e-007 -9.33106e-007 -3.7921 -1.552 1.4806 -3.18055e-015 6.36111e-015 -6.36111e-015 -1.4655 -1.808 0.9609 5.78592e-008 1.26455e-007 9.33106e-007 -4.9141 -1.269 0.3592 -5.78592e-008 -1.26455e-007 -9.33106e-007 -3.1477 -1.685 0.8462 -3.18055e-015 6.36111e-015 -6.36111e-015 -0.8055 -1.585 0.7955 5.78592e-008 1.26455e-007 9.33106e-007 8.367 -8.2066 0.5982 13.5249 -42.0861 28.1427 2.1923 -43.463 -0.4932 -4.07807 34.0678 2.80739 0.7333 -45.8593 -2.6451 6.70404 57.3821 -9.10577 -8.367 -8.2066 0.5982 -14.3421 -42.7958 -28.826 -2.1923 -43.463 -0.4931 4.14651 35.5218 -2.5749 -0.7333 -45.8593 -2.6451 -6.8464 57.8857 9.31319 
